<?xml version="1.0" encoding="UTF-8"?>
<svg
   xmlns="http://www.w3.org/2000/svg"
   width="30"
   height="30"
   viewBox="0 0 30 30"
   version="1.1">
  <!-- Three horizontal bars in different shades of grey -->
  <rect x="0" y="0" width="30" height="10" fill="#bbb"/>
  <rect x="0" y="10" width="30" height="10" fill="#d4d4d4"/>
  <rect x="0" y="20" width="30" height="10" fill="#e3e3e3"/>
  
  <!-- Question mark circle -->
  <circle cx="15" cy="15" r="8" fill="white" opacity="0.9"/>
  
  <!-- Question mark -->
  <path
     d="M 15,10 C 13.343,10 12,11.343 12,13 C 12,13.552 12.448,14 13,14 C 13.552,14 14,13.552 14,13 C 14,12.448 14.448,12 15,12 C 15.552,12 16,12.448 16,13 C 16,13.552 15.552,14 15,14 C 14.448,14 14,14.448 14,15 L 14,16 C 14,16.552 14.448,17 15,17 C 15.552,17 16,16.552 16,16 L 16,15.172 C 17.165,14.58 18,13.384 18,13 C 18,11.343 16.657,10 15,10 Z M 15,19 C 14.448,19 14,19.448 14,20 C 14,20.552 14.448,21 15,21 C 15.552,21 16,20.552 16,20 C 16,19.448 15.552,19 15,19 Z"
     fill="#666"/>
</svg>
